<svg id="svg" xmlns="http://www.w3.org/2000/svg" xmlns:xlink="http://www.w3.org/1999/xlink" width="500" height="389.84375" viewBox="0, 0, 500,389.84375"><g id="svgg"><path id="path0" d="M116.927 0.267 C 105.337 0.924,97.919 2.602,86.979 7.041 C 78.469 10.494,72.182 12.894,63.932 15.837 C 52.788 19.814,45.414 22.614,37.801 25.761 C 35.415 26.747,31.061 28.397,28.125 29.427 C 17.931 33.004,13.561 35.583,10.024 40.112 C 8.879 41.578,7.382 43.494,6.698 44.371 C 6.013 45.247,5.086 46.725,4.639 47.656 C 4.191 48.587,3.558 49.701,3.232 50.131 C 1.418 52.528,0.539 57.128,0.225 65.885 C -0.205 77.847,0.092 147.476,0.619 158.333 C 0.852 163.132,1.205 171.634,1.402 177.228 L 1.762 187.399 2.814 190.509 C 3.393 192.220,3.944 194.196,4.039 194.900 C 4.805 200.584,12.827 208.297,21.484 211.675 C 23.928 212.628,34.715 215.417,38.281 216.018 C 39.642 216.247,41.400 216.604,42.188 216.812 C 42.975 217.019,49.303 218.543,56.250 220.199 C 63.197 221.855,72.103 224.018,76.042 225.005 C 108.632 233.174,120.031 235.333,135.503 236.264 C 146.477 236.925,159.107 234.610,164.045 231.032 C 164.658 230.588,166.114 229.859,167.280 229.413 C 169.163 228.692,173.524 226.442,185.779 219.868 C 187.769 218.800,192.164 216.318,195.545 214.351 C 198.926 212.384,203.333 209.856,205.339 208.733 C 211.834 205.095,222.706 198.682,225.911 196.598 C 232.104 192.573,233.979 194.225,232.227 202.163 L 231.641 204.818 231.664 236.979 C 231.677 254.668,231.821 274.121,231.986 280.208 C 232.576 302.087,232.847 311.405,233.029 316.029 L 233.213 320.730 234.676 323.581 C 235.481 325.149,236.526 327.367,236.999 328.510 C 239.090 333.564,245.800 341.390,250.834 344.645 C 253.320 346.252,265.420 352.448,270.573 354.752 C 272.363 355.552,278.457 358.456,284.115 361.204 C 289.772 363.953,295.305 366.593,296.410 367.071 C 297.516 367.550,299.078 368.362,299.882 368.877 C 301.917 370.179,306.621 372.636,310.026 374.176 C 314.736 376.306,323.315 379.913,325.870 380.838 C 327.183 381.313,329.472 382.311,330.955 383.056 C 335.981 385.578,341.451 387.578,347.526 389.116 C 352.940 390.487,372.811 389.851,378.124 388.138 C 379.629 387.652,382.734 386.844,385.026 386.340 C 390.880 385.054,398.342 383.025,401.845 381.767 C 403.480 381.180,406.458 380.302,408.464 379.817 C 410.469 379.332,412.637 378.745,413.281 378.513 C 413.926 378.280,417.266 377.272,420.703 376.273 C 424.141 375.273,430.176 373.472,434.115 372.270 C 438.053 371.068,442.096 369.893,443.099 369.658 C 444.102 369.423,448.262 368.128,452.344 366.781 C 456.426 365.434,462.520 363.505,465.885 362.495 C 472.768 360.429,475.854 359.057,478.254 356.996 C 479.113 356.259,480.602 355.138,481.563 354.505 C 482.524 353.871,483.543 352.980,483.827 352.523 C 484.110 352.066,485.651 350.472,487.250 348.980 C 492.837 343.767,496.228 337.998,497.772 331.082 C 498.119 329.527,498.583 327.752,498.803 327.136 C 500.521 322.343,500.267 255.430,498.420 226.042 C 498.272 223.678,498.049 219.694,497.926 217.188 C 497.785 214.316,497.506 211.763,497.172 210.286 C 496.880 208.997,496.395 206.537,496.093 204.820 C 494.518 195.864,491.411 191.578,482.031 185.424 C 478.736 183.261,476.583 182.196,472.526 180.720 C 466.419 178.498,443.703 169.502,439.844 167.776 C 437.767 166.848,435.186 165.694,434.108 165.213 C 433.030 164.731,430.974 163.989,429.539 163.562 C 428.104 163.136,421.545 160.837,414.963 158.453 C 389.965 149.401,384.874 147.961,375.813 147.378 C 370.675 147.047,361.744 147.186,360.026 147.624 C 359.453 147.770,357.168 148.016,354.948 148.172 C 348.844 148.600,345.839 149.066,334.766 151.304 C 329.180 152.432,322.793 153.720,320.573 154.166 C 318.353 154.612,314.720 155.375,312.500 155.863 C 307.532 156.953,306.260 157.184,303.143 157.567 C 301.792 157.733,300.222 158.033,299.655 158.233 C 297.990 158.820,285.346 161.360,277.743 162.634 C 268.863 164.122,265.606 164.921,259.800 167.033 C 254.375 169.007,253.644 168.095,256.418 162.814 C 257.042 161.627,257.552 160.438,257.552 160.174 C 257.552 159.909,257.846 158.561,258.205 157.179 C 259.757 151.204,259.978 117.776,258.839 61.068 L 258.556 47.005 257.501 42.839 C 253.125 25.547,245.317 17.511,229.931 14.462 C 228.007 14.080,225.478 13.483,224.311 13.134 C 223.145 12.785,220.999 12.378,219.544 12.228 C 218.088 12.079,215.552 11.608,213.908 11.181 C 210.249 10.231,207.101 9.687,198.177 8.462 C 194.382 7.941,187.702 6.935,183.333 6.226 C 178.965 5.517,173.984 4.709,172.266 4.431 C 170.547 4.152,166.387 3.508,163.021 2.999 C 155.296 1.831,151.369 1.153,149.219 0.618 C 147.261 0.130,123.838 -0.125,116.927 0.267 M128.516 13.554 C 136.743 14.481,137.664 14.864,137.435 17.257 C 137.292 18.736,136.193 20.052,135.099 20.052 C 134.785 20.052,133.235 20.429,131.652 20.890 C 126.899 22.275,119.698 22.085,114.323 20.432 C 113.249 20.102,112.029 19.757,111.612 19.666 C 110.512 19.426,109.115 17.934,109.115 17.002 C 109.115 15.062,111.872 13.870,117.969 13.174 C 119.246 13.028,126.015 13.272,128.516 13.554 M242.580 26.090 C 242.953 26.260,243.817 27.168,244.501 28.108 C 245.185 29.048,246.366 30.521,247.125 31.380 C 250.859 35.608,250.299 36.995,245.505 35.395 C 242.145 34.274,239.928 34.231,236.979 35.229 C 234.920 35.927,222.076 41.562,218.750 43.228 C 217.676 43.766,215.039 44.933,212.891 45.822 C 210.742 46.711,207.402 48.200,205.469 49.131 C 203.535 50.062,201.128 51.155,200.119 51.560 C 199.110 51.965,196.004 53.375,193.218 54.695 C 190.431 56.014,186.925 57.618,185.426 58.259 C 183.927 58.900,181.920 59.818,180.966 60.298 C 180.012 60.779,178.151 61.476,176.830 61.847 C 166.926 64.631,162.684 67.504,158.248 74.430 C 151.940 84.278,151.664 86.162,151.390 121.224 C 151.226 142.344,151.405 151.627,152.216 164.063 C 152.417 167.142,152.705 173.294,152.856 177.734 C 153.533 197.618,153.667 200.843,153.946 203.906 L 154.242 207.161 153.292 211.025 C 152.250 215.261,152.118 215.540,150.626 216.621 C 149.983 217.086,149.281 217.980,148.732 219.032 C 145.912 224.433,138.137 229.687,132.965 229.688 C 129.838 229.688,130.148 228.504,133.928 226.017 C 139.442 222.389,143.273 217.355,145.430 210.903 C 146.635 207.297,146.809 205.243,146.587 197.266 C 146.488 193.685,146.393 184.544,146.378 176.953 C 146.312 145.103,145.651 116.799,144.899 113.542 C 144.683 112.611,144.400 110.091,144.269 107.943 C 144.001 103.540,143.495 100.528,142.749 98.895 C 142.471 98.285,141.543 96.251,140.688 94.375 C 136.508 85.205,130.182 78.643,121.163 74.121 C 116.979 72.024,114.134 71.257,103.646 69.401 C 96.929 68.212,87.719 66.500,85.306 65.992 C 79.969 64.868,57.041 60.555,51.536 59.640 C 48.041 59.058,43.476 58.121,41.391 57.556 C 28.761 54.135,18.252 55.353,11.283 61.046 C 8.524 63.300,7.288 63.233,7.294 60.832 C 7.307 55.649,13.404 52.443,25.911 51.043 C 34.844 50.043,37.269 50.255,59.766 54.003 C 69.648 55.650,78.496 57.072,79.427 57.165 C 80.358 57.257,82.760 57.613,84.766 57.956 C 86.771 58.299,91.606 59.048,95.511 59.620 C 102.294 60.613,118.156 63.365,122.005 64.217 C 124.196 64.702,141.382 65.186,147.526 64.936 C 152.827 64.720,160.539 62.933,167.763 60.248 C 169.441 59.625,171.081 59.113,171.409 59.110 C 171.737 59.108,173.001 58.686,174.219 58.172 C 175.436 57.658,178.659 56.328,181.380 55.215 C 184.102 54.102,187.266 52.758,188.411 52.227 C 191.161 50.954,204.928 45.103,208.073 43.872 C 209.434 43.340,213.535 41.439,217.188 39.649 C 220.840 37.859,226.444 35.246,229.640 33.843 C 236.474 30.843,238.123 29.913,239.037 28.542 C 240.669 26.092,241.430 25.566,242.580 26.090 M141.862 39.162 C 147.224 40.108,149.510 42.246,147.666 44.590 C 145.716 47.069,132.979 47.615,124.740 45.573 C 123.665 45.307,122.201 45.013,121.484 44.920 C 117.087 44.349,114.986 42.776,116.862 41.461 C 117.988 40.672,120.729 39.950,127.344 38.701 C 128.718 38.442,139.767 38.793,141.862 39.162 M16.786 41.696 C 18.284 42.722,19.769 45.433,19.383 46.438 C 18.817 47.912,13.521 47.036,12.635 45.321 C 11.288 42.716,14.360 40.033,16.786 41.696 M238.561 66.909 C 241.554 70.200,243.389 77.429,242.349 81.838 C 241.693 84.620,238.774 89.726,236.975 91.239 C 235.388 92.575,231.435 92.273,229.430 90.662 C 223.497 85.897,225.403 67.497,231.930 66.519 C 232.620 66.415,233.766 66.061,234.476 65.732 C 236.064 64.996,237.089 65.291,238.561 66.909 M37.031 75.599 C 42.873 77.555,43.823 78.843,43.789 84.764 C 43.743 92.878,39.289 100.365,34.505 100.368 C 30.125 100.370,27.695 97.631,25.651 90.390 L 24.666 86.899 25.095 84.660 C 25.331 83.429,25.524 82.064,25.523 81.626 C 25.518 79.506,27.509 75.806,29.241 74.713 C 30.522 73.906,32.721 74.156,37.031 75.599 M114.193 89.055 C 121.867 92.764,123.789 108.208,117.173 113.002 C 107.567 119.960,96.191 108.089,100.341 95.438 C 102.009 90.355,109.622 86.847,114.193 89.055 M213.903 112.243 C 218.491 115.321,220.064 126.868,216.799 133.503 C 214.946 137.268,208.929 140.578,206.357 139.248 C 200.598 136.270,198.451 125.334,202.135 117.749 C 204.613 112.649,210.443 109.921,213.903 112.243 M37.674 113.265 C 46.827 117.421,45.685 140.132,36.380 138.977 C 28.918 138.051,26.205 134.246,26.228 124.740 C 26.249 116.077,31.741 110.571,37.674 113.265 M112.240 129.958 C 119.302 131.073,121.514 134.194,121.459 142.969 C 121.407 151.335,120.344 153.290,114.876 155.080 C 107.409 157.524,100.884 151.004,100.931 141.146 C 100.956 135.860,102.054 133.849,106.712 130.558 C 107.888 129.728,109.601 129.542,112.240 129.958 M39.009 154.964 C 42.001 156.263,45.331 161.032,45.861 164.779 C 47.023 172.985,41.983 183.825,37.405 182.966 C 28.336 181.265,23.108 165.532,29.317 158.627 C 32.856 154.691,35.808 153.575,39.009 154.964 M183.322 166.686 C 187.581 167.668,189.920 170.220,190.533 174.552 C 191.294 179.942,191.287 180.324,190.359 183.464 C 187.377 193.557,180.117 195.763,175.974 187.835 C 173.598 183.289,173.412 179.489,175.269 173.438 C 175.686 172.077,176.154 170.461,176.308 169.847 C 176.994 167.111,179.758 165.865,183.322 166.686 M258.201 173.174 C 258.289 173.316,258.120 173.975,257.826 174.639 C 256.217 178.277,259.131 181.309,266.700 183.876 C 268.042 184.331,270.051 185.159,271.163 185.716 C 272.275 186.273,274.794 187.383,276.762 188.183 C 278.729 188.983,284.264 191.279,289.063 193.285 C 293.861 195.291,298.587 197.222,299.565 197.575 C 300.544 197.928,303.063 199.009,305.164 199.978 C 307.265 200.946,309.688 202.015,310.547 202.352 C 311.406 202.689,314.453 203.950,317.318 205.156 C 320.182 206.361,323.698 207.732,325.130 208.204 C 326.563 208.675,328.503 209.424,329.442 209.870 C 330.609 210.423,331.845 210.762,333.348 210.942 C 334.557 211.087,336.713 211.454,338.137 211.757 C 339.601 212.068,341.867 212.329,343.346 212.358 C 344.786 212.385,348.249 212.501,351.042 212.614 C 357.024 212.857,368.445 212.434,371.500 211.856 C 372.637 211.641,375.208 211.285,377.214 211.064 C 384.466 210.266,391.157 208.867,408.259 204.576 C 412.525 203.505,418.125 202.152,420.703 201.569 C 424.878 200.625,437.980 197.289,458.594 191.921 C 466.099 189.967,468.660 189.583,474.212 189.583 L 477.536 189.583 480.969 191.471 C 485.539 193.984,486.849 194.981,486.849 195.946 C 486.849 197.203,486.235 197.328,483.938 196.540 C 477.909 194.470,474.749 194.734,456.641 198.824 C 451.341 200.021,443.314 201.780,438.802 202.732 C 434.290 203.685,428.958 204.872,426.953 205.371 C 424.948 205.869,419.909 207.038,415.755 207.968 C 411.602 208.898,406.504 210.071,404.427 210.575 C 402.350 211.079,397.930 212.122,394.604 212.893 C 376.252 217.147,367.830 222.352,361.318 233.464 C 358.060 239.023,357.737 239.753,356.482 244.401 L 355.357 248.568 355.356 276.953 C 355.356 297.519,355.461 307.885,355.738 314.583 C 355.993 320.764,356.120 330.733,356.120 344.661 L 356.120 365.495 354.985 367.708 C 351.013 375.456,346.044 379.960,341.003 380.382 C 337.420 380.682,337.562 379.165,341.351 376.638 C 344.063 374.830,344.387 374.396,346.606 369.586 L 348.421 365.653 348.174 345.912 C 348.038 335.055,347.753 317.676,347.540 307.292 C 347.326 296.908,347.028 280.618,346.877 271.094 C 346.292 234.333,346.228 233.903,340.316 227.092 C 333.594 219.346,330.126 217.426,302.214 205.990 C 296.341 203.584,290.027 200.957,288.183 200.151 C 283.930 198.294,279.024 196.252,270.313 192.713 C 266.517 191.171,261.771 189.145,259.766 188.210 C 255.262 186.110,254.885 186.006,250.445 185.655 L 246.855 185.371 245.425 186.631 C 241.545 190.051,240.293 190.524,240.155 188.622 C 239.898 185.082,243.703 179.252,247.960 176.667 C 251.236 174.676,257.756 172.453,258.201 173.174 M118.367 175.914 C 124.897 179.255,123.452 195.405,116.320 198.790 C 111.057 201.287,106.998 199.031,103.658 191.748 C 99.534 182.757,109.910 171.587,118.367 175.914 M370.443 176.330 C 376.352 177.055,381.208 179.177,380.598 180.769 C 378.839 185.352,348.958 185.095,348.958 180.496 C 348.958 177.382,360.600 175.124,370.443 176.330 M262.702 216.248 C 263.850 216.846,264.565 217.790,264.804 219.026 C 264.926 219.662,265.335 220.905,265.711 221.789 C 268.470 228.268,266.475 238.048,261.979 240.083 C 254.078 243.660,248.230 229.943,253.326 219.789 C 255.101 216.253,259.510 214.588,262.702 216.248 M162.061 216.966 C 162.374 217.130,163.343 217.928,164.214 218.739 C 165.837 220.250,166.182 220.436,168.880 221.265 C 170.721 221.830,170.993 222.581,169.706 223.540 C 168.029 224.788,164.069 223.847,162.336 221.787 C 160.117 219.151,159.929 215.844,162.061 216.966 M467.381 230.204 C 474.786 233.390,476.234 246.317,469.941 253.066 C 467.569 255.611,466.517 255.804,461.124 254.687 C 454.739 253.364,452.817 244.515,457.023 235.807 C 459.672 230.323,463.209 228.410,467.381 230.204 M323.961 241.070 C 329.744 244.732,330.905 259.793,325.762 264.439 C 318.675 270.842,309.679 258.619,312.836 246.875 C 314.144 242.011,320.341 238.778,323.961 241.070 M394.458 246.362 C 404.012 250.507,401.288 273.478,391.267 273.267 C 386.543 273.168,385.010 271.865,382.987 266.230 C 379.122 255.460,386.394 242.863,394.458 246.362 M292.078 268.472 C 299.877 271.922,301.949 284.925,295.833 292.049 L 294.401 293.717 292.164 293.734 C 288.301 293.762,286.382 292.831,284.876 290.200 C 284.413 289.391,283.700 288.348,283.291 287.882 C 280.580 284.794,280.673 278.484,283.516 272.705 C 285.717 268.233,288.465 266.874,292.078 268.472 M257.756 299.612 C 268.178 302.069,270.109 320.938,260.139 322.899 C 253.105 324.283,248.661 316.558,250.248 305.705 C 251.097 299.903,252.873 298.461,257.756 299.612 M467.969 312.126 C 471.669 313.588,473.051 315.613,474.358 321.486 C 475.824 328.076,472.499 334.394,466.589 336.246 C 459.741 338.392,455.539 331.645,457.152 321.094 C 458.439 312.680,461.967 309.754,467.969 312.126 M321.777 326.291 C 326.955 329.261,329.942 337.195,328.504 344.157 C 326.141 355.599,314.122 353.788,311.612 341.613 C 309.741 332.538,316.061 323.013,321.777 326.291 M397.777 331.534 C 401.773 333.411,404.673 341.627,403.286 347.135 C 401.580 353.909,396.951 357.811,390.625 357.808 C 384.498 357.806,380.847 346.380,384.357 338.192 C 386.536 333.110,393.637 329.587,397.777 331.534 M367.545 379.931 C 369.279 380.814,370.863 381.391,372.600 381.772 C 376.801 382.693,377.634 383.339,376.264 384.615 C 373.561 387.133,365.942 384.535,364.432 380.579 C 363.561 378.300,364.114 378.184,367.545 379.931 " stroke="none" fill="#d12626" fill-rule="evenodd"></path></g></svg>