<?xml version="1.0" encoding="iso-8859-1"?>
<!-- Generator: Adobe Illustrator 19.0.0, SVG Export Plug-In . SVG Version: 6.00 Build 0)  -->
<svg version="1.1" id="Layer_1" xmlns="http://www.w3.org/2000/svg" xmlns:xlink="http://www.w3.org/1999/xlink" x="0px" y="0px"
	 viewBox="0 0 512 512" style="enable-background:new 0 0 512 512;" xml:space="preserve">
<g transform="translate(1 1)">
	<g>
		<g>
			<path d="M41.667,378.733c-5.12,0-8.533,3.413-8.533,8.533s3.413,8.533,8.533,8.533s8.533-3.413,8.533-8.533
				S46.787,378.733,41.667,378.733z" fill="#d12626"/>
			<path d="M109.933,395.8c5.12,0,8.533-3.413,8.533-8.533s-3.413-8.533-8.533-8.533s-8.533,3.413-8.533,8.533
				S104.813,395.8,109.933,395.8z" fill="#d12626"/>
			<path d="M41.667,447c-5.12,0-8.533,3.413-8.533,8.533s3.413,8.533,8.533,8.533s8.533-3.413,8.533-8.533S46.787,447,41.667,447z"
				fill="#d12626"/>
			<path d="M109.933,464.067c5.12,0,8.533-3.413,8.533-8.533S115.053,447,109.933,447s-8.533,3.413-8.533,8.533
				S104.813,464.067,109.933,464.067z" fill="#d12626"/>
			<path d="M203.8,208.067h-42.667v-128c0-5.12-3.413-8.533-8.533-8.533H16.067c-5.12,0-8.533,3.413-8.533,8.533V216.6
				c0,5.12,3.413,8.533,8.533,8.533h42.667V344.6h-51.2c-5.12,0-8.533,3.413-8.533,8.533v136.533c0,5.12,3.413,8.533,8.533,8.533
				h136.533c5.12,0,8.533-3.413,8.533-8.533v-128h51.2c5.12,0,8.533-3.413,8.533-8.533V216.6
				C212.333,211.48,208.92,208.067,203.8,208.067z M24.6,88.6h119.467v119.467h-76.8H24.6V88.6z M135.533,481.133H16.067V361.667
				h51.2h68.267V481.133z M195.267,344.6h-51.2H75.8V225.133h76.8h42.667V344.6z" fill="#d12626"/>
			<path d="M101.4,242.2c-5.12,0-8.533,3.413-8.533,8.533s3.413,8.533,8.533,8.533s8.533-3.413,8.533-8.533
				S106.52,242.2,101.4,242.2z" fill="#d12626"/>
			<path d="M135.533,276.333c-5.12,0-8.533,3.413-8.533,8.533c0,5.12,3.413,8.533,8.533,8.533s8.533-3.413,8.533-8.533
				C144.067,279.747,140.653,276.333,135.533,276.333z" fill="#d12626"/>
			<path d="M169.667,327.533c5.12,0,8.533-3.413,8.533-8.533s-3.413-8.533-8.533-8.533s-8.533,3.413-8.533,8.533
				S164.547,327.533,169.667,327.533z" fill="#d12626"/>
			<path d="M84.333,156.867c5.12,0,8.533-3.413,8.533-8.533s-3.413-8.533-8.533-8.533c-5.12,0-8.533,3.413-8.533,8.533
				S79.213,156.867,84.333,156.867z" fill="#d12626"/>
			<path d="M329.24,219.16l96.427-96.427c1.707-1.707,2.56-3.413,2.56-5.973s-0.853-4.267-2.56-5.973L329.24,14.36
				c-3.413-3.413-8.533-3.413-11.947,0l-96.427,96.427c-1.707,1.707-2.56,3.413-2.56,5.973s0.853,4.267,2.56,5.973l96.427,96.427
				c1.707,1.707,3.413,2.56,5.973,2.56S327.533,220.867,329.24,219.16z M238.787,116.76l84.48-84.48l84.48,84.48l-84.48,84.48
				L238.787,116.76z" fill="#d12626"/>
			<path d="M329.24,74.947c3.413-3.413,3.413-8.533,0-11.947c-3.413-3.413-8.533-3.413-11.947,0c-3.413,3.413-3.413,8.533,0,11.947
				S325.827,78.36,329.24,74.947z" fill="#d12626"/>
			<path d="M377.88,122.733c3.413-3.413,3.413-8.533,0-11.947c-3.413-3.413-8.533-3.413-11.947,0s-3.413,8.533,0,11.947
				C368.493,126.147,374.467,126.147,377.88,122.733z" fill="#d12626"/>
			<path d="M269.507,110.787c-3.413,3.413-3.413,8.533,0,11.947c2.56,3.413,8.533,3.413,11.947,0c3.413-3.413,3.413-8.533,0-11.947
				C278.04,107.373,272.92,107.373,269.507,110.787z" fill="#d12626"/>
			<path d="M293.4,134.68c-3.413,3.413-3.413,8.533,0,11.947s8.533,3.413,11.947,0c3.413-3.413,3.413-8.533,0-11.947
				C301.933,131.267,296.813,131.267,293.4,134.68z" fill="#d12626"/>
			<path d="M353.133,98.84c3.413-3.413,3.413-8.533,0-11.947s-8.533-3.413-11.947,0c-3.413,3.413-3.413,8.533,0,11.947
				C344.6,102.253,349.72,102.253,353.133,98.84z" fill="#d12626"/>
			<path d="M329.24,171.373c3.413-3.413,3.413-8.533,0-11.947c-3.413-3.413-8.533-3.413-11.947,0s-3.413,8.533,0,11.947
				S325.827,174.787,329.24,171.373z" fill="#d12626"/>
			<path d="M357.4,387.267c0,5.12,3.413,8.533,8.533,8.533s8.533-3.413,8.533-8.533s-3.413-8.533-8.533-8.533
				S357.4,382.147,357.4,387.267z" fill="#d12626"/>
			<path d="M434.2,395.8c5.12,0,8.533-3.413,8.533-8.533s-3.413-8.533-8.533-8.533s-8.533,3.413-8.533,8.533
				S429.08,395.8,434.2,395.8z" fill="#d12626"/>
			<path d="M365.933,447c-5.12,0-8.533,3.413-8.533,8.533s3.413,8.533,8.533,8.533s8.533-3.413,8.533-8.533S371.053,447,365.933,447
				z" fill="#d12626"/>
			<path d="M400.067,429.933c5.12,0,8.533-3.413,8.533-8.533s-3.413-8.533-8.533-8.533c-5.12,0-8.533,3.413-8.533,8.533
				S394.947,429.933,400.067,429.933z" fill="#d12626"/>
			<path d="M434.2,464.067c5.12,0,8.533-3.413,8.533-8.533S439.32,447,434.2,447s-8.533,3.413-8.533,8.533
				S429.08,464.067,434.2,464.067z" fill="#d12626"/>
			<path d="M502.467,208.067H365.933c-5.12,0-8.533,3.413-8.533,8.533v128h-25.6c-5.12,0-8.533,3.413-8.533,8.533v136.533
				c0,5.12,3.413,8.533,8.533,8.533h136.533c5.12,0,8.533-3.413,8.533-8.533v-128h25.6c5.12,0,8.533-3.413,8.533-8.533V216.6
				C511,211.48,507.587,208.067,502.467,208.067z M459.8,481.133H340.333V361.667h25.6H459.8V481.133z M493.933,344.6h-25.6h-93.867
				V225.133h119.467V344.6z" fill="#d12626"/>
			<path d="M400.067,259.267c5.12,0,8.533-3.413,8.533-8.533s-3.413-8.533-8.533-8.533c-5.12,0-8.533,3.413-8.533,8.533
				S394.947,259.267,400.067,259.267z" fill="#d12626"/>
			<path d="M468.333,327.533c5.12,0,8.533-3.413,8.533-8.533s-3.413-8.533-8.533-8.533S459.8,313.88,459.8,319
				S463.213,327.533,468.333,327.533z" fill="#d12626"/>
		</g>
	</g>
</g>
<g>
</g>
<g>
</g>
<g>
</g>
<g>
</g>
<g>
</g>
<g>
</g>
<g>
</g>
<g>
</g>
<g>
</g>
<g>
</g>
<g>
</g>
<g>
</g>
<g>
</g>
<g>
</g>
<g>
</g>
</svg>
