<svg id="svg" xmlns="http://www.w3.org/2000/svg" xmlns:xlink="http://www.w3.org/1999/xlink" width="500" height="636.604774535809" transform='rotate(90)' viewBox="0, 0, 500,636.604774535809"><g id="svgg"><path id="path0" d="M222.836 0.714 C 222.470 1.106,218.934 7.448,214.978 14.805 L 207.786 28.183 194.410 28.183 L 181.034 28.183 181.034 37.729 L 181.034 47.275 166.529 55.053 C 158.550 59.331,151.535 63.304,150.940 63.881 L 149.857 64.931 149.945 94.102 C 150.029 121.902,150.062 123.304,150.644 123.947 C 150.980 124.318,157.952 128.474,166.137 133.183 L 181.020 141.744 181.027 156.747 L 181.034 171.751 109.251 171.751 L 37.467 171.751 37.467 182.789 L 37.467 193.827 19.645 203.398 C 9.843 208.662,1.413 213.346,0.912 213.808 L 0.000 214.647 0.000 244.064 L 0.000 273.482 0.941 274.274 C 1.459 274.710,9.888 279.684,19.672 285.328 L 37.462 295.590 37.465 307.775 L 37.467 319.960 109.255 319.960 L 181.044 319.960 180.956 330.635 L 180.869 341.309 163.155 350.844 C 153.413 356.088,145.132 360.689,144.753 361.067 C 144.067 361.754,144.065 361.838,144.065 391.081 L 144.065 420.406 144.796 421.137 C 145.199 421.540,153.479 426.459,163.198 432.068 L 180.869 442.268 180.954 463.450 L 181.039 484.632 164.210 493.681 C 154.954 498.657,146.970 503.113,146.469 503.582 L 145.557 504.434 145.557 533.642 C 145.557 558.637,145.626 562.949,146.038 563.537 C 146.303 563.915,154.281 568.685,163.768 574.138 L 181.015 584.052 181.025 594.910 L 181.034 605.769 195.925 605.769 L 210.816 605.769 218.690 620.441 C 223.020 628.510,226.864 635.448,227.232 635.859 L 227.901 636.605 257.367 636.605 L 286.834 636.605 287.565 635.859 C 287.967 635.448,292.097 628.510,296.743 620.441 L 305.189 605.769 317.212 605.769 L 329.234 605.769 329.322 596.103 L 329.410 586.436 347.149 576.215 C 356.905 570.593,365.223 565.610,365.633 565.140 L 366.379 564.287 366.374 535.376 C 366.371 512.841,366.278 506.284,365.953 505.643 C 365.645 505.034,360.809 502.270,347.390 495.032 L 329.244 485.245 329.244 465.006 L 329.244 444.766 348.127 433.877 C 364.490 424.440,367.078 422.843,367.523 421.905 C 368.220 420.435,368.281 364.866,367.587 363.239 C 367.225 362.389,364.586 360.864,348.289 352.085 L 329.410 341.915 329.322 330.938 L 329.235 319.960 400.858 319.960 L 472.480 319.960 472.480 304.908 L 472.480 289.856 485.292 282.466 C 492.339 278.402,498.531 274.718,499.052 274.280 L 500.000 273.482 500.000 244.015 L 500.000 214.548 499.282 213.879 C 498.887 213.511,492.695 210.057,485.522 206.204 L 472.480 199.198 472.480 185.474 L 472.480 171.751 460.269 171.751 L 448.057 171.751 440.174 157.079 C 435.838 149.009,432.003 142.109,431.653 141.744 C 430.857 140.915,373.628 140.519,372.037 141.332 C 371.478 141.617,368.559 146.379,362.587 156.743 L 353.946 171.742 341.595 171.746 L 329.244 171.751 329.244 99.967 L 329.244 28.183 314.230 28.183 L 299.216 28.183 291.629 15.003 C 287.456 7.754,283.666 1.413,283.206 0.912 L 282.369 -0.000 252.935 -0.000 L 223.501 0.000 222.836 0.714 M286.415 16.827 L 293.060 28.349 253.572 28.433 C 231.853 28.479,214.034 28.468,213.974 28.408 C 213.914 28.348,216.648 23.125,220.050 16.802 L 226.237 5.305 253.004 5.305 L 279.771 5.305 286.415 16.827 M323.939 102.454 L 323.939 171.088 255.139 171.088 L 186.340 171.088 186.340 102.454 L 186.340 33.820 255.139 33.820 L 323.939 33.820 323.939 102.454 M210.378 42.113 C 191.060 45.062,193.413 73.742,212.965 73.652 C 232.132 73.564,234.134 45.126,215.186 42.124 C 212.819 41.749,212.765 41.749,210.378 42.113 M295.424 42.002 C 286.264 43.075,279.699 52.628,282.013 61.519 C 285.196 73.745,300.025 77.845,308.764 68.914 C 319.229 58.219,310.327 40.258,295.424 42.002 M180.954 114.983 L 180.869 135.470 168.103 128.098 L 155.338 120.727 155.338 93.995 L 155.338 67.262 168.103 60.383 L 180.869 53.505 180.954 74.001 C 181.001 85.273,181.001 103.715,180.954 114.983 M209.770 131.296 C 197.422 133.516,192.621 149.239,201.562 158.180 C 211.600 168.218,228.525 161.137,228.566 146.883 C 228.595 137.026,219.562 129.536,209.770 131.296 M295.259 131.206 C 284.560 132.699,278.540 144.066,283.228 153.921 C 289.486 167.079,309.139 165.149,312.821 151.016 C 315.659 140.120,306.380 129.654,295.259 131.206 M428.510 146.966 C 429.600 148.679,441.990 171.847,441.876 171.961 C 441.808 172.029,423.375 172.047,400.913 172.001 L 360.074 171.916 367.056 159.814 C 370.896 153.158,374.258 147.376,374.527 146.966 L 375.015 146.220 401.525 146.220 L 428.035 146.220 428.510 146.966 M180.371 245.855 L 180.371 314.655 111.737 314.655 L 43.103 314.655 43.103 245.855 L 43.103 177.056 111.737 177.056 L 180.371 177.056 180.371 245.855 M324.520 245.938 L 324.604 314.655 255.803 314.655 L 187.003 314.655 187.003 246.076 C 187.003 208.358,187.102 177.398,187.224 177.276 C 187.346 177.154,218.269 177.092,255.941 177.138 L 324.436 177.221 324.520 245.938 M467.175 245.855 L 467.175 314.655 398.541 314.655 L 329.907 314.655 329.907 245.855 L 329.907 177.056 398.541 177.056 L 467.175 177.056 467.175 245.855 M151.083 185.673 C 138.721 187.895,133.925 203.606,142.875 212.557 C 152.906 222.587,169.876 215.486,169.871 201.260 C 169.867 191.366,160.882 183.911,151.083 185.673 M209.968 185.827 C 196.609 188.859,193.192 206.707,204.496 214.410 C 214.628 221.314,228.200 214.855,229.318 202.597 C 230.276 192.089,220.334 183.473,209.968 185.827 M295.424 185.688 C 283.081 187.880,277.998 203.044,286.568 212.107 C 296.528 222.637,313.969 215.813,313.988 201.378 C 314.002 191.386,305.204 183.951,295.424 185.688 M353.946 185.583 C 343.245 187.076,337.219 198.459,341.920 208.298 C 346.968 218.862,361.645 220.321,368.750 210.965 C 377.275 199.741,367.883 183.638,353.946 185.583 M437.886 185.672 C 430.642 186.978,425.078 193.647,425.006 201.110 C 424.870 215.236,441.736 222.549,451.857 212.753 C 463.071 201.898,453.269 182.899,437.886 185.672 M37.798 244.715 C 37.798 269.344,37.687 289.434,37.550 289.358 C 37.413 289.283,30.102 285.081,21.303 280.021 L 5.305 270.821 5.305 244.054 L 5.305 217.287 21.303 208.638 C 30.102 203.881,37.413 199.977,37.550 199.961 C 37.687 199.946,37.798 220.085,37.798 244.715 M483.807 211.426 L 494.695 217.282 494.695 244.057 L 494.695 270.831 483.855 277.077 C 477.893 280.512,472.895 283.372,472.748 283.433 C 472.600 283.494,472.480 265.999,472.480 244.557 C 472.480 223.114,472.579 205.570,472.699 205.570 C 472.820 205.570,477.818 208.206,483.807 211.426 M109.251 230.108 C 96.271 232.202,91.218 248.079,100.579 257.356 C 110.451 267.139,127.636 259.929,127.650 245.999 C 127.660 236.150,118.867 228.556,109.251 230.108 M208.716 230.746 C 191.432 236.903,195.439 261.817,213.694 261.697 C 231.593 261.579,235.342 236.620,218.340 230.771 C 215.819 229.904,211.116 229.892,208.716 230.746 M293.431 230.709 C 282.025 234.470,278.549 248.694,286.977 257.121 C 297.007 267.152,313.992 260.069,313.992 245.855 C 313.992 235.267,303.360 227.435,293.431 230.709 M394.053 230.595 C 376.484 236.148,380.333 261.870,398.707 261.691 C 416.589 261.516,420.332 236.612,403.353 230.771 C 401.101 229.996,396.239 229.904,394.053 230.595 M66.017 274.873 C 54.058 277.401,49.407 292.504,57.860 301.366 C 67.759 311.744,85.212 304.796,85.212 290.476 C 85.212 280.439,75.817 272.801,66.017 274.873 M210.212 274.898 C 199.938 276.889,194.424 289.148,199.665 298.346 C 205.924 309.330,222.063 308.888,227.652 297.578 C 233.547 285.652,223.323 272.356,210.212 274.898 M294.098 275.115 C 283.781 277.919,279.018 290.100,284.776 298.961 C 293.484 312.364,313.968 306.375,313.988 290.420 C 314.002 280.023,304.094 272.399,294.098 275.115 M352.785 274.898 C 344.917 276.423,339.185 284.746,340.436 292.829 C 342.424 305.670,358.195 310.872,367.358 301.708 C 378.478 290.589,368.313 271.888,352.785 274.898 M436.667 275.159 C 424.857 278.348,421.020 293.026,429.711 301.768 C 436.849 308.949,449.163 307.468,454.356 298.803 C 461.777 286.421,450.547 271.411,436.667 275.159 M323.939 388.594 L 323.939 457.228 255.139 457.228 L 186.340 457.228 186.340 388.594 L 186.340 319.960 255.139 319.960 L 323.939 319.960 323.939 388.594 M292.705 328.890 C 279.942 332.970,277.563 349.890,288.711 357.300 C 299.116 364.218,313.329 356.639,313.329 344.174 C 313.329 333.436,302.827 325.653,292.705 328.890 M181.034 391.773 L 181.034 436.065 178.962 434.899 C 177.822 434.258,170.698 430.158,163.130 425.788 L 149.370 417.843 149.285 391.153 L 149.200 364.463 164.869 356.007 C 173.486 351.356,180.649 347.535,180.786 347.515 C 180.923 347.496,181.034 367.412,181.034 391.773 M345.981 356.987 L 362.404 365.832 362.320 392.666 L 362.235 419.500 346.154 428.785 C 337.309 433.892,329.886 438.144,329.658 438.235 C 329.328 438.366,329.244 429.241,329.244 393.272 C 329.244 368.451,329.314 348.143,329.401 348.143 C 329.487 348.143,336.948 352.123,345.981 356.987 M210.544 417.462 C 199.561 418.911,193.423 431.452,198.951 441.147 C 205.183 452.077,221.626 451.489,227.013 440.145 C 232.478 428.637,223.157 415.798,210.544 417.462 M323.939 531.830 L 323.939 600.464 255.139 600.464 L 186.340 600.464 186.340 531.830 L 186.340 463.196 255.139 463.196 L 323.939 463.196 323.939 531.830 M180.954 555.941 L 180.869 577.782 165.870 569.146 L 150.871 560.511 150.867 533.767 L 150.862 507.023 165.865 498.948 L 180.869 490.873 180.954 512.486 C 181.001 524.374,181.001 543.928,180.954 555.941 M345.294 500.000 L 361.051 508.455 361.063 535.193 L 361.074 561.932 345.203 571.085 C 336.474 576.120,329.237 580.239,329.122 580.239 C 329.007 580.239,328.912 560.233,328.912 535.781 C 328.912 508.174,329.031 491.366,329.224 491.435 C 329.396 491.495,336.627 495.350,345.294 500.000 M252.984 515.928 C 239.926 517.636,234.555 533.656,243.899 543.026 C 253.073 552.226,268.863 546.999,270.879 534.094 C 272.493 523.764,263.427 514.561,252.984 515.928 M298.723 606.018 C 298.714 606.155,295.467 611.862,291.508 618.700 L 284.308 631.134 257.456 631.205 L 230.603 631.275 223.984 618.888 C 220.343 612.076,217.309 606.337,217.242 606.135 C 217.153 605.870,228.302 605.769,257.930 605.769 C 280.375 605.769,298.733 605.881,298.723 606.018 " stroke="none" fill="#d12626" fill-rule="evenodd"></path></g></svg>